{
    "asset" : {
        "generator" : "Khronos glTF Blender I/O v0.9.61",
        "version" : "2.0"
    },
    "scene" : 0,
    "scenes" : [
        {
            "nodes" : [
                0
            ],
            "name" : "Scene"
        }
    ],
    "nodes" : [
        {
            "rotation" : [
                0.7071068286895752,
                0,
                0,
                0.7071067094802856
            ],
            "name" : "Sphere",
            "mesh" : 0
        }
    ],
    "meshes" : [
        {
            "primitives" : [
                {
                    "attributes" : {
                        "TEXCOORD_0" : 0,
                        "POSITION" : 1,
                        "NORMAL" : 2
                    },
                    "indices" : 3
                }
            ],
            "name" : "Sphere.001"
        }
    ],
    "accessors" : [
        {
            "componentType" : 5126,
            "type" : "VEC2",
            "count" : 2976,
            "bufferView" : 0
        },
        {
            "type" : "VEC3",
            "max" : [
                1.000000238418579,
                1.0000003576278687,
                1
            ],
            "componentType" : 5126,
            "min" : [
                -0.9999998211860657,
                -1,
                -1
            ],
            "bufferView" : 1,
            "count" : 2976
        },
        {
            "componentType" : 5126,
            "type" : "VEC3",
            "count" : 2976,
            "bufferView" : 2
        },
        {
            "componentType" : 5123,
            "type" : "SCALAR",
            "count" : 3000,
            "bufferView" : 3
        }
    ],
    "bufferViews" : [
        {
            "buffer" : 0,
            "byteLength" : 23808,
            "byteOffset" : 0
        },
        {
            "buffer" : 0,
            "byteLength" : 35712,
            "byteOffset" : 23808
        },
        {
            "buffer" : 0,
            "byteLength" : 35712,
            "byteOffset" : 59520
        },
        {
            "buffer" : 0,
            "byteLength" : 6000,
            "byteOffset" : 95232
        }
    ],
    "buffers" : [
        {
            "byteLength" : 101232,
            "uri" : "data:application/octet-stream;base64,"
        }
    ]
}
